<?xml version="1.0" encoding="UTF-8" standalone="no"?>
<!DOCTYPE svg PUBLIC "-//W3C//DTD SVG 1.1//EN" "http://www.w3.org/Graphics/SVG/1.1/DTD/svg11.dtd">
<svg xmlns="http://www.w3.org/2000/svg" version="1.1" viewBox="0.00 0.00 536.00 466.00">
<path fill="#000" d="
  M 102.53 144.71
  C 95.08 151.56 88.26 159.21 81.15 166.50
  A 1.38 1.38 0.0 0 1 79.18 166.51
  Q 59.81 146.98 41.27 128.58
  Q 38.91 126.23 36.96 123.87
  Q 35.88 122.56 37.09 121.37
  C 55.10 103.59 73.14 85.17 89.72 68.73
  C 93.89 64.60 97.97 60.07 102.11 56.11
  Q 103.47 54.80 105.51 54.81
  Q 136.38 54.96 166.52 54.69
  Q 167.05 54.69 167.05 55.22
  Q 166.92 144.01 166.73 233.00
  Q 166.70 246.67 167.32 252.98
  Q 168.88 268.87 174.42 283.31
  Q 181.17 300.90 193.60 317.04
  Q 209.84 338.10 233.13 350.47
  Q 267.02 368.46 306.26 363.69
  Q 329.08 360.92 348.52 350.20
  Q 386.15 329.43 404.54 288.96
  Q 407.64 282.13 409.95 273.73
  A 1.27 1.27 0.0 0 0 408.74 272.13
  Q 376.13 271.69 341.24 272.17
  Q 316.69 272.51 296.11 272.36
  A 1.09 1.08 0.3 0 1 295.03 271.28
  L 295.03 210.74
  A 1.24 1.24 0.0 0 1 296.27 209.50
  L 476.71 209.53
  Q 477.15 209.53 477.14 209.96
  Q 477.01 225.63 476.83 241.76
  Q 476.73 251.92 475.69 261.41
  Q 470.59 308.11 444.88 345.68
  Q 416.19 387.63 370.13 409.19
  Q 351.28 418.01 329.24 422.96
  Q 320.69 424.89 310.28 425.83
  C 287.40 427.92 263.69 426.74 241.37 420.63
  Q 200.80 409.51 168.04 381.48
  Q 160.43 374.96 153.87 367.78
  Q 115.98 326.30 106.56 270.65
  Q 104.46 258.25 104.33 240.86
  Q 104.02 199.82 104.50 154.22
  Q 104.54 149.77 104.01 145.27
  A 0.89 0.89 0.0 0 0 102.53 144.71
  Z"
/>
<path fill="#000" d="
  M 360.91 68.68
  C 383.59 77.58 403.42 90.95 420.84 107.39
  Q 421.37 107.89 421.63 108.55
  A 1.31 1.28 -33.2 0 1 421.33 109.93
  L 379.22 152.10
  Q 377.76 153.56 376.25 152.16
  Q 369.20 145.64 362.08 140.44
  Q 340.28 124.52 315.62 119.65
  C 286.67 113.94 255.92 117.75 230.79 132.97
  Q 218.24 140.56 210.83 146.87
  Q 205.41 151.47 200.11 157.51
  Q 198.87 158.92 198.88 157.05
  L 198.97 79.98
  Q 198.97 78.50 200.26 77.78
  Q 205.47 74.85 210.92 72.39
  Q 255.61 52.25 305.34 55.64
  C 317.05 56.44 330.04 58.91 340.89 61.88
  Q 349.89 64.35 360.91 68.68
  Z"
/>
</svg>
